<?xml version="1.0" encoding="utf-8"?>
<svg viewBox="18.139 21.989 481.861 478.011" xmlns="http://www.w3.org/2000/svg">
  <path style="fill: rgb(216, 216, 216); stroke: rgb(0, 0, 0);" d="M -377.718 384.477 C -428.777 275.127 -327.851 265.902 -397.944 144.618 C -447.861 58.245 -371.724 26.828 -291.005 102.956 C -233.663 157.037 -115.357 -17.596 -82.697 72.863 C -69.281 110.023 -149.295 189.862 -114.076 265.258 C -93.93 308.386 -6.964 375.407 -72.44 433.95 C -137.914 492.491 -326.659 493.827 -377.718 384.477 Z"/>
  <path style="fill: rgb(216, 216, 216); stroke: rgb(0, 0, 0);" d="M 673.092 136.265 C 727.245 62.493 823.024 3.184 884.134 53.244 C 945.244 103.305 881.405 142.237 926.695 224.083 C 971.986 305.93 1016.036 364.929 950.56 423.472 C 885.086 482.013 823.391 390.793 772.399 370.459 C 721.407 350.124 635.856 398.871 602.688 354.717 C 569.521 310.564 589.556 223.286 673.092 136.265 Z"/>
  <path style="fill: rgb(216, 216, 216); stroke: rgb(0, 0, 0);" d="M 450.64 854.604 C 383.934 825.308 411.83 720.206 444.441 663.662 C 477.052 607.118 535.482 594.182 616.063 598.626 C 696.644 603.071 809.658 616.24 809.902 752.767 C 810.03 824.659 779.087 842.651 738.455 840.042 C 691.663 837.038 664.937 801.813 625.905 797.445 C 552.649 789.246 529.927 889.425 450.64 854.604 Z"/>
  <path style="fill: rgb(216, 216, 216); stroke: rgb(0, 0, 0);" d="M -168.955 827.492 C -177.135 760.584 -186.116 679.178 -143.404 620.886 C -100.692 562.594 -44.854 542.686 38.24 559.088 C 121.334 575.49 138.75 667.774 105.784 719.737 C 72.818 771.7 95.873 806.998 99.943 845.219 C 104.013 883.44 66.63 966.603 -43.052 955.569 C -127.3 947.094 -163.955 868.392 -168.955 827.492 Z"/>
  <path style="fill: rgb(216, 216, 216); stroke: rgb(0, 0, 0);" d="M 1135.659 944.299 C 1039.86 895.598 1166.307 807.974 1169.336 743.193 C 1172.367 678.412 1048.434 645.317 1100.946 567.374 C 1153.457 489.431 1312.214 524.13 1393.574 581.266 C 1489.449 648.594 1483.825 703.836 1482.767 746.66 C 1481.327 804.937 1436.395 870.679 1389.536 904.929 C 1317.039 957.918 1219.836 987.092 1135.659 944.299 Z" transform="matrix(1, 0.000246, -0.000246, 1, 0.182937, -0.31623)"/>
  <path style="fill: rgb(216, 216, 216); stroke: rgb(0, 0, 0);" d="M 1273.682 730.241 C 1171.031 740.864 1134.103 588.745 1136.352 523.964 C 1138.601 459.183 1154.694 390.627 1248.129 350.553 C 1341.564 310.479 1446.611 319.8 1508.159 417.682 C 1560.152 500.368 1559.271 573.738 1524.614 594.299 C 1484.288 618.223 1444.571 552.51 1407.501 565.487 C 1336.412 590.372 1348.723 722.475 1273.682 730.241 Z"/>
  <path style="fill: rgb(216, 216, 216); stroke: rgb(0, 0, 0);" d="M 233.913 431.963 C 153.448 451.139 112.344 396.335 89.263 341.304 C 69.814 294.937 58.799 241.038 93.779 158.723 C 120.65 95.494 194.08 66.871 224.605 62.397 C 301.525 51.124 283.84 112.975 346.317 151.898 C 400.985 185.957 477.648 191.51 449.235 253.784 C 423.458 310.284 404.055 295.208 356.972 335.098 C 293.523 388.854 314.755 412.698 233.913 431.963 Z"/>
  <path style="fill: rgb(216, 216, 216); stroke: rgb(0, 0, 0);" d="M 533.549 -52.379 C 459.258 -91.297 502.467 -149.95 503.151 -200.525 C 503.814 -249.572 421.351 -271.483 451.274 -357.084 C 476.668 -429.731 569.357 -369.189 600.306 -373.725 C 678.294 -385.155 711.535 -456.65 774.88 -417.186 C 830.307 -382.654 842.204 -339.268 843.744 -256.314 C 844.628 -208.721 811.081 -128.775 763.344 -88.331 C 699.014 -33.829 615.47 -9.465 533.549 -52.379 Z"/>
  <path style="fill: rgb(216, 216, 216); stroke: rgb(0, 0, 0);" d="M -97.008 -316.1 C -87.378 -376.419 -141.433 -408.54 -93.771 -457.356 C -46.109 -506.172 68.219 -453.874 106.341 -374.762 C 144.463 -295.65 130.933 -184.747 75.821 -128.161 C 20.709 -71.575 -83.521 -52.886 -126.442 -72.541 C -169.363 -92.196 -203.954 -130.359 -190.887 -193.417 C -177.82 -256.475 -117.105 -257.46 -97.008 -316.1 Z"/>
</svg>